<svg xmlns="http://www.w3.org/2000/svg" xmlns:xlink="http://www.w3.org/1999/xlink"><symbol id="icon-arrow-author"><path d="M14 11.572a1 1 0 000-1.573L2.311.817C1.562.227.49.924.725 1.85l2.212 8.689a1 1 0 010 .493l-2.212 8.69c-.235.925.836 1.622 1.587 1.032L14 11.572z" fill="#42196D"/></symbol><symbol id="icon-arrow-down"><path d="M21.785 29a1 1 0 001.573 0L44.326 2.311c.59-.75-.108-1.822-1.033-1.587L22.818 5.937a1 1 0 01-.493 0L1.85.725C.924.49.227 1.561.817 2.312L21.785 29z" fill="#FAD264"/></symbol><symbol id="icon-arrow-reasons"><path d="M55.355 78.859L56.822 77l-1.467-1.859-46.48-58.89L3.52 9.468v135.066l5.355-6.785 46.48-58.89z" fill="#312D48" stroke="#fff" stroke-width="6"/></symbol><symbol id="icon-arrow-round"><path d="M58.892 22.62a1.1 1.1 0 00-2.19.202c.066.71.1 1.433.1 2.146 0 12.703-10.293 23.038-22.944 23.038-6.127 0-11.89-2.396-16.222-6.746a1.099 1.099 0 10-1.558 1.552c4.749 4.768 11.064 7.393 17.78 7.393C47.721 50.205 59 38.883 59 24.968c0-.781-.038-1.571-.108-2.349zm-38.677-.661a1.098 1.098 0 00-1.555-.032l-7.657 7.352a23.133 23.133 0 01-.376-4.128C10.627 12.496 20.926 2.2 33.584 2.2c6.12 0 11.877 2.38 16.21 6.7a1.1 1.1 0 001.553-1.556A24.999 24.999 0 0033.584 0C19.713 0 8.429 11.283 8.429 25.151c0 1.104.075 2.202.217 3.29L1.86 21.927a1.1 1.1 0 00-1.523 1.586L9.5 32.308a1.095 1.095 0 001.523 0l9.161-8.795a1.1 1.1 0 00.03-1.554z" fill="#FAD264"/></symbol><symbol id="icon-calendar"><path d="M7.507 12.476H4.271a.54.54 0 00-.536.546v3.292c0 .302.24.546.536.546h3.236a.54.54 0 00.536-.546v-3.292a.541.541 0 00-.536-.546zm-.536 3.292H4.808v-2.2H6.97v2.2zm8.083-3.292h-3.236a.54.54 0 00-.537.546v3.292c0 .302.24.546.537.546h3.236a.54.54 0 00.537-.546v-3.292a.541.541 0 00-.537-.546zm-.536 3.292h-2.164v-2.2h2.164v2.2zm-7.011 4.21H4.271a.541.541 0 00-.536.546v3.294c0 .302.24.546.536.546h3.236a.54.54 0 00.536-.546v-3.294a.541.541 0 00-.536-.546zm-.536 3.294H4.808V21.07H6.97v2.202zm8.083-3.294h-3.236a.541.541 0 00-.537.546v3.294c0 .302.24.546.537.546h3.236a.54.54 0 00.537-.546v-3.294a.541.541 0 00-.537-.546zm-.536 3.294h-2.164V21.07h2.164v2.202zm7.849-3.294h-3.235a.541.541 0 00-.536.546v3.294c0 .302.24.546.536.546h3.235a.54.54 0 00.536-.546v-3.294a.541.541 0 00-.536-.546zm-.537 3.294h-2.16V21.07h2.161v2.202z" fill="#fff"/><path d="M26.305 2.673h-3.257V2.04c0-1.125-.899-2.04-2.003-2.04s-2.003.915-2.003 2.04v.633H15.42V2.04c0-1.125-.9-2.04-2.003-2.04-1.105 0-2.005.915-2.005 2.04v.633h-3.62V2.04C7.791.915 6.892 0 5.788 0 4.683 0 3.784.915 3.784 2.04v.633H.536A.54.54 0 000 3.219v26.235c0 .301.24.546.536.546h25.77a.541.541 0 00.536-.546V3.219a.542.542 0 00-.537-.546zm-6.19-.633a.94.94 0 01.93-.948.94.94 0 01.93.948v2.794a.94.94 0 01-.93.947.94.94 0 01-.93-.947V2.04zm-6.698-.948a.94.94 0 01.93.947v2.794a.94.94 0 01-.93.948.941.941 0 01-.932-.948V3.278c.002-.02.006-.039.006-.06 0-.02-.004-.04-.006-.06V2.04a.94.94 0 01.932-.947zm-8.56.948a.94.94 0 01.931-.948.94.94 0 01.93.948v2.794a.94.94 0 01-.93.947.94.94 0 01-.932-.947V2.04zm20.912 26.868H1.072V3.764h2.712v1.07c0 1.124.9 2.039 2.004 2.039s2.003-.915 2.003-2.04V3.764h3.62v1.07c0 1.124.9 2.039 2.005 2.039 1.104 0 2.003-.915 2.003-2.04V3.764h3.622v1.07c0 1.124.899 2.039 2.004 2.039 1.104 0 2.002-.915 2.002-2.04V3.764h2.721v25.144z" fill="#fff"/><path d="M22.96 10.898l-2.736 3.433-1.142-1.11a.53.53 0 00-.758.019.553.553 0 00.017.772l1.562 1.518a.531.531 0 00.787-.051l3.103-3.893a.553.553 0 00-.079-.768.53.53 0 00-.754.08z" fill="#fff"/></symbol><symbol id="icon-clock"><path d="M27.064 5.184C15 5.184 5.183 15 5.183 27.065s9.816 21.881 21.881 21.881c12.066 0 21.882-9.816 21.882-21.881S39.13 5.184 27.064 5.184zm0 41.417c-10.772 0-19.536-8.764-19.536-19.536 0-10.772 8.764-19.537 19.536-19.537 10.773 0 19.536 8.765 19.536 19.537 0 10.772-8.763 19.536-19.536 19.536z" fill="#FAD264"/><path d="M32.593 23.51l-4.72 4.72V11.441a1.173 1.173 0 00-2.345 0V31.06c0 .077.008.155.024.23.006.034.018.064.028.097.012.04.022.082.039.123.016.039.038.074.058.111.016.03.03.062.05.091.085.129.196.24.325.326.024.016.05.027.075.04.042.023.082.048.127.067.035.014.072.023.108.034.037.011.072.025.11.032a1.174 1.174 0 00.458 0c.038-.007.074-.021.111-.033.036-.01.072-.019.107-.033.046-.019.088-.044.13-.068.024-.014.049-.024.072-.04.066-.043.127-.092.181-.148l6.721-6.72a1.173 1.173 0 00-1.659-1.66z" fill="#FAD264"/><path d="M27.065 0C12.14 0 0 12.141 0 27.065 0 41.99 12.141 54.13 27.065 54.13c14.923 0 27.065-12.141 27.065-27.065C54.13 12.142 41.988 0 27.065 0zm0 51.784c-13.63 0-24.72-11.09-24.72-24.72 0-13.63 11.089-24.72 24.72-24.72 13.63 0 24.719 11.09 24.719 24.72 0 13.63-11.09 24.72-24.72 24.72z" fill="#FAD264"/></symbol><symbol id="icon-intro-check"><path d="M6.367 41.806c0 3.583 2.916 6.5 6.5 6.5s6.5-2.917 6.5-6.5c0-3.584-2.916-6.5-6.5-6.5a6.507 6.507 0 00-6.5 6.5zm10.863 0a4.369 4.369 0 01-4.363 4.363 4.369 4.369 0 01-4.364-4.363 4.369 4.369 0 014.364-4.364 4.369 4.369 0 014.363 4.364zm40.413-24.274a1.069 1.069 0 00-1.508.085l-15.517 17.38-7.987-7.988a1.068 1.068 0 10-1.51 1.51l8.787 8.787c.2.2.472.313.755.313l.03-.001a1.07 1.07 0 00.767-.356l16.27-18.223a1.068 1.068 0 00-.087-1.507z" fill="#FAD264"/><path d="M41.031 40.29c-.59 0-1.068.479-1.068 1.068v10.63H2.137V2.138h37.826v22.381a1.068 1.068 0 102.137 0V1.068C42.1.478 41.622 0 41.03 0H1.068C.478 0 0 .479 0 1.068v51.99c0 .589.478 1.068 1.068 1.068h39.963c.59 0 1.069-.48 1.069-1.069V41.358c0-.59-.478-1.068-1.069-1.068z" fill="#FAD264"/><path d="M28.544 14.404a1.068 1.068 0 100-2.137H7.082a1.068 1.068 0 100 2.137h21.462zm1.331 8.435c0-.59-.478-1.069-1.068-1.069H7.35a1.068 1.068 0 100 2.137h21.457c.59 0 1.068-.479 1.068-1.068z" fill="#FAD264"/></symbol><symbol id="icon-intro-star"><circle cx="22" cy="22" r="22" fill="#FAD264"/><path d="M34.455 18.707l-8.269-1.192-3.697-7.436a.544.544 0 00-.977 0l-3.697 7.436-8.27 1.192a.538.538 0 00-.302.922l5.984 5.788-1.412 8.173a.54.54 0 00.216.53.55.55 0 00.574.04L22 30.301l7.396 3.86a.55.55 0 00.573-.042.54.54 0 00.217-.529l-1.413-8.173 5.983-5.787a.538.538 0 00-.301-.923zm-6.647 6.134a.539.539 0 00-.157.479l1.275 7.373-6.672-3.481a.55.55 0 00-.507 0l-6.671 3.48 1.274-7.372a.538.538 0 00-.157-.479l-5.397-5.22 7.46-1.076a.545.545 0 00.41-.296L22 11.541l3.336 6.708c.079.16.233.27.41.296l7.46 1.075-5.399 5.221z" fill="#42196D"/></symbol><symbol id="icon-main-checklist"><path d="M19.617 11.122l-5.96 6.677-3.025-3.024a.53.53 0 10-.75.749l3.421 3.42c.1.1.235.156.375.156h.015a.53.53 0 00.38-.177l6.335-7.095a.53.53 0 10-.791-.706z" fill="#42196D"/><path d="M29.732 15a.522.522 0 00.016-.126c0-1.412-1.464-2.142-2.757-2.786-.917-.457-1.865-.93-2.118-1.525-.257-.608.106-1.599.457-2.558.488-1.336.993-2.717.061-3.648-.913-.914-2.25-.604-3.542-.304-.905.21-1.841.426-2.465.163-.608-.258-1.114-1.056-1.603-1.828C17.071 1.268 16.27 0 14.874 0c-1.397 0-2.185 1.296-2.88 2.44-.482.795-.981 1.615-1.589 1.872-.621.263-1.567.025-2.482-.205-1.303-.327-2.65-.667-3.566.25-.925.926-.477 2.314-.043 3.657.31.958.63 1.949.372 2.562-.253.598-1.16 1.067-2.036 1.52-1.242.642-2.65 1.37-2.65 2.778 0 .044.007.086.017.127a.523.523 0 00-.017.125c0 1.409 1.408 2.137 2.65 2.779.877.453 1.783.921 2.036 1.52.26.613-.061 1.604-.371 2.562-.434 1.343-.883 2.73.042 3.656.917.917 2.264.578 3.567.25.915-.23 1.86-.467 2.482-.204.607.256 1.106 1.077 1.588 1.87.696 1.145 1.483 2.441 2.88 2.441 1.395 0 2.199-1.269 2.908-2.388.49-.772.995-1.57 1.602-1.828.626-.264 1.56-.047 2.465.163 1.292.3 2.629.61 3.542-.304.933-.931.427-2.313-.061-3.648-.351-.959-.714-1.95-.457-2.557.253-.596 1.201-1.07 2.118-1.526 1.293-.644 2.757-1.374 2.757-2.785a.514.514 0 00-.016-.128zm-3.213 1.962c-1.09.543-2.215 1.105-2.621 2.062-.42.992.016 2.183.437 3.333.391 1.07.761 2.082.307 2.536-.498.498-1.497.266-2.554.021-1.07-.248-2.175-.504-3.116-.106-.913.386-1.509 1.327-2.085 2.236-.618.975-1.201 1.896-2.013 1.896-.8 0-1.37-.938-1.975-1.931-.57-.938-1.158-1.907-2.08-2.297-.949-.402-2.07-.12-3.154.153-1.063.267-2.067.52-2.559.028-.467-.467-.135-1.494.216-2.581.37-1.143.752-2.324.34-3.301-.403-.95-1.482-1.509-2.525-2.049-1.068-.552-2.078-1.073-2.078-1.837a.538.538 0 00-.017-.127.523.523 0 00.017-.125c0-.764 1.009-1.285 2.077-1.837 1.044-.54 2.123-1.098 2.525-2.049.412-.977.03-2.158-.34-3.3-.35-1.088-.683-2.115-.215-2.582.49-.492 1.495-.239 2.558.028 1.085.273 2.205.555 3.154.154.922-.39 1.511-1.36 2.082-2.297.603-.994 1.173-1.932 1.974-1.932.812 0 1.395.92 2.012 1.896.577.91 1.172 1.85 2.086 2.237.941.398 2.047.141 3.116-.107 1.057-.245 2.056-.477 2.554.022.454.453.084 1.464-.308 2.535-.42 1.151-.856 2.341-.436 3.334.405.957 1.532 1.518 2.62 2.061 1.117.556 2.17 1.081 2.17 1.837 0 .044.008.086.018.127a.522.522 0 00-.017.125c0 .757-1.054 1.282-2.17 1.837z" fill="#42196D"/></symbol><symbol id="icon-mouse-down"><circle cx="25" cy="25" r="25" fill="#fff"/><circle cx="25" cy="25" r="20" fill="#E130E3"/><path d="M25 38.956L29.59 34 31 35.522 25 42l-6-6.478L20.41 34 25 38.956z" fill="#F2F2F2"/><path fill-rule="evenodd" clip-rule="evenodd" d="M25 10.035c4.4 0 7.96 3.54 8 7.93v6c0 4.42-3.58 8-8 8s-8-3.58-8-8v-6c.04-4.39 3.6-7.93 8-7.93zm1 7.93h5a6.005 6.005 0 00-5-5.84v5.84zm-2-5.84v5.84h-5a6.005 6.005 0 015-5.84zm1 17.84c3.31 0 6-2.69 6-6v-4H19v4c0 3.31 2.69 6 6 6z" fill="#F2F2F2"/></symbol><symbol id="icon-reasons-check"><path d="M15.3 30C6.862 30 0 23.271 0 15 0 6.73 6.863 0 15.3 0c3.354 0 6.557 1.06 9.263 3.068a1.186 1.186 0 11-1.415 1.907 13.087 13.087 0 00-7.849-2.6C8.172 2.374 2.374 8.037 2.374 15S8.172 27.626 15.3 27.626 28.226 21.962 28.226 15c0-.975-.109-1.923-.322-2.818a1.187 1.187 0 012.31-.551 14.58 14.58 0 01.386 3.37C30.6 23.27 23.736 30 15.3 30z" fill="#FAD264"/><path d="M15 22.192c-.315 0-.617-.124-.84-.347l-8.109-8.108a1.187 1.187 0 111.679-1.679l7.22 7.22L29.127 3.4a1.187 1.187 0 011.771 1.581L15.885 21.796a1.186 1.186 0 01-.851.396H15z" fill="#FAD264"/></symbol><symbol id="icon-round-list"><circle cx="4.5" cy="4.524" r="4.5" fill="#42196D"/></symbol><symbol id="icon-round-stage"><path d="M68.5 33.5c0 4.331-.879 8.621-2.586 12.624a32.953 32.953 0 01-7.367 10.705 34.089 34.089 0 01-11.031 7.157A34.895 34.895 0 0134.5 66.5c-4.467 0-8.89-.854-13.016-2.514a34.089 34.089 0 01-11.03-7.157 32.954 32.954 0 01-7.368-10.705A32.16 32.16 0 01.5 33.5c0-4.331.879-8.621 2.586-12.624a32.954 32.954 0 017.367-10.705 34.088 34.088 0 0111.031-7.157A34.896 34.896 0 0134.5.5c4.467 0 8.89.854 13.016 2.514a34.088 34.088 0 0111.03 7.157 32.953 32.953 0 017.368 10.705A32.158 32.158 0 0168.5 33.5h0z" stroke="#fff"/><mask id="a" fill="#fff"><path d="M61.737 33.5c0 5.905-2.035 11.64-5.782 16.292-3.746 4.652-8.988 7.953-14.89 9.376a27.988 27.988 0 01-17.678-1.522c-5.553-2.41-10.115-6.554-12.96-11.774a25.777 25.777 0 01-2.739-17.026c1.07-5.813 4.113-11.111 8.644-15.05 4.531-3.94 10.29-6.292 16.358-6.685 6.068-.392 12.097 1.198 17.126 4.519l-.589.84c-4.836-3.193-10.633-4.722-16.468-4.345-5.835.378-11.372 2.64-15.729 6.428-4.356 3.788-7.282 8.882-8.311 14.472a24.786 24.786 0 002.633 16.372c2.736 5.019 7.123 9.004 12.462 11.32a26.912 26.912 0 0016.998 1.464c5.675-1.368 10.716-4.542 14.319-9.015 3.602-4.473 5.56-9.988 5.56-15.666h1.046z"/></mask><path d="M61.737 33.5c0 5.905-2.035 11.64-5.782 16.292-3.746 4.652-8.988 7.953-14.89 9.376a27.988 27.988 0 01-17.678-1.522c-5.553-2.41-10.115-6.554-12.96-11.774a25.777 25.777 0 01-2.739-17.026c1.07-5.813 4.113-11.111 8.644-15.05 4.531-3.94 10.29-6.292 16.358-6.685 6.068-.392 12.097 1.198 17.126 4.519l-.589.84c-4.836-3.193-10.633-4.722-16.468-4.345-5.835.378-11.372 2.64-15.729 6.428-4.356 3.788-7.282 8.882-8.311 14.472a24.786 24.786 0 002.633 16.372c2.736 5.019 7.123 9.004 12.462 11.32a26.912 26.912 0 0016.998 1.464c5.675-1.368 10.716-4.542 14.319-9.015 3.602-4.473 5.56-9.988 5.56-15.666h1.046z" stroke="#fff" stroke-width="2" mask="url(#a)"/></symbol><symbol id="icon-triangle"><path d="M55.355 78.859L56.822 77l-1.467-1.859-46.48-58.89L3.52 9.468v135.066l5.355-6.785 46.48-58.89z" stroke="#fff" stroke-width="6"/></symbol></svg>